<svg width="65" height="16" viewBox="0 0 65 16" fill="none" xmlns="http://www.w3.org/2000/svg">
<path d="M22 13.5V0H26.5028C27.3647 0 28.1003 0.175619 28.7096 0.526856C29.3226 0.873861 29.7889 1.36686 30.1084 2.00586C30.4316 2.64062 30.5932 3.38753 30.5932 4.24658C30.5932 5.10986 30.4297 5.85254 30.1028 6.47461C29.7759 7.09245 29.3022 7.56641 28.6817 7.89648C28.065 8.22656 27.3183 8.3916 26.4415 8.3916H23.4266V6.18262H26.0514C26.5121 6.18262 26.8947 6.11068 27.1994 5.9668C27.504 5.82292 27.7306 5.6071 27.8793 5.31934C28.0316 5.03158 28.1077 4.67399 28.1077 4.24658C28.1077 3.81494 28.0316 3.45101 27.8793 3.15479C27.7306 2.85856 27.5022 2.63428 27.1938 2.48193C26.8892 2.32536 26.5046 2.24707 26.0402 2.24707H24.413V13.5H22ZM28.1635 7.08399L31.5 13.5H28.7096L25.561 7.08399H28.1635Z" fill="#f00"/>
<path d="M0 16V0H9V2.78906H2.87389V6.60156H8.40266V9.39063H2.87389V16H0Z" fill="#f00"/>
<path d="M32 13.5V0H40V2.26611H34.5546V5.36377H39.469V7.62988H34.5546V13.5H32Z" fill="#f00"/>
<path d="M12.5 14.5H10L13.9457 0H17.0599L21 14H18.5L15.5474 3.19922H15.4581L12.5 14.5ZM12.4277 8.49707H18.5444V10.8076H12.4277V8.49707Z" fill="#f00"/>
<path d="M41 13.5V0H43.6423V11H48V13.5H41Z" fill="#f00"/>
<path d="M53 0V14H50V0H53Z" fill="#f00"/>
<path d="M56.9908 0L59.4465 5.45313H59.5416L62.0092 0H64.9168L61.2005 8L65 16H62.0389L59.5416 10.5391H59.4465L57.5 15H54.5L57.8114 8L54.0714 0H56.9908Z" fill="#f00"/>
</svg>
