<svg width="64" height="16" viewBox="0 0 64 16" fill="none" xmlns="http://www.w3.org/2000/svg">
<path d="M21 13.5V0H25.5028C26.3647 0 27.1003 0.175619 27.7096 0.526856C28.3226 0.873861 28.7889 1.36686 29.1084 2.00586C29.4316 2.64062 29.5932 3.38753 29.5932 4.24658C29.5932 5.10986 29.4297 5.85254 29.1028 6.47461C28.7759 7.09245 28.3022 7.56641 27.6817 7.89648C27.065 8.22656 26.3183 8.3916 25.4415 8.3916H22.4266V6.18262H25.0514C25.5121 6.18262 25.8947 6.11068 26.1994 5.9668C26.504 5.82292 26.7307 5.6071 26.8793 5.31934C27.0316 5.03158 27.1077 4.67399 27.1077 4.24658C27.1077 3.81494 27.0316 3.45101 26.8793 3.15479C26.7307 2.85856 26.5022 2.63428 26.1938 2.48193C25.8892 2.32536 25.5046 2.24707 25.0402 2.24707H23.413V13.5H21ZM27.1635 7.08399L30.5 13.5H27.7096L24.561 7.08399H27.1635Z" fill="#FF0000"/>
<path d="M0 16V0H9V2.78906H2.87389V6.60156H8.40266V9.39063H2.87389V16H0Z" fill="#FF0000"/>
<path d="M31.7 13.5V0H39.7V2.26611H34.2546V5.36377H39.169V7.62988H34.2546V13.5H31.7Z" fill="#FF0000"/>
<path d="M11 15H8.5L12.9457 0H16.0599L20 14H17.5L14.5474 3.19922H14.4581L11 15ZM11.4277 8.49707H17.5444V10.8076H11.4277V8.49707Z" fill="#FF0000"/>
<path d="M41 13.5V0H43.6423V11H48V13.5H41Z" fill="#FF0000"/>
<path d="M52 0V14H49V0H52Z" fill="#FF0000"/>
<path d="M55.9908 0L58.4465 5.45313H58.5416L61.0092 0H63.9168L60.2005 8L64 16H61.0389L58.5416 10.5391H58.4465L56.5 15H53.5L56.8114 8L53.0714 0H55.9908Z" fill="#FF0000"/>
</svg>
