<svg xmlns="http://www.w3.org/2000/svg" width="40" height="41" fill="#ffbb00"><path fill="" d="M20 0C8.95 0 0 9.342 0 20.877c0 9.238 5.725 17.04 13.675 19.807 1 .183 1.375-.444 1.375-.992 0-.495-.025-2.14-.025-3.888C10 36.769 8.7 34.525 8.3 33.351c-.225-.6-1.2-2.453-2.05-2.949-.7-.391-1.7-1.357-.025-1.383 1.575-.026 2.7 1.514 3.075 2.14 1.8 3.157 4.675 2.27 5.825 1.722.175-1.357.7-2.27 1.275-2.792-4.45-.522-9.1-2.323-9.1-10.308 0-2.27.775-4.15 2.05-5.61-.2-.523-.9-2.663.2-5.533 0 0 1.675-.548 5.5 2.14 1.6-.47 3.3-.705 5-.705 1.7 0 3.4.235 5 .705 3.825-2.714 5.5-2.14 5.5-2.14 1.1 2.87.4 5.01.2 5.532 1.275 1.462 2.05 3.314 2.05 5.61 0 8.012-4.675 9.787-9.125 10.309.725.652 1.35 1.905 1.35 3.862 0 2.792-.025 5.037-.025 5.741 0 .548.375 1.2 1.375.992 3.97-1.399 7.42-4.062 9.865-7.615C38.684 29.515 40 25.25 40 20.877 40 9.342 31.05 0 20 0Z"/></svg>