<svg xmlns="http://www.w3.org/2000/svg" width="28" height="28" fill="none"><path stroke="url(#a)" stroke-linecap="round" stroke-linejoin="round" stroke-width="3" d="M12.155 26a1.846 1.846 0 1 0 0-3.693 1.846 1.846 0 0 0 0 3.693Z"/><path stroke="url(#b)" stroke-linecap="round" stroke-linejoin="round" stroke-width="3" d="M20.462 26a1.846 1.846 0 1 0 0-3.693 1.846 1.846 0 0 0 0 3.693Z"/><path stroke="url(#c)" stroke-linecap="round" stroke-linejoin="round" stroke-width="3" d="M16.549 7.603a7.39 7.39 0 0 0-4.438-5.08A7.38 7.38 0 0 0 3 5.676a7.391 7.391 0 0 0 1.772 9.482"/><path stroke="url(#d)" stroke-linecap="round" stroke-linejoin="round" stroke-width="3" d="m9.387 9.414 2.768-2.77"/><path stroke="url(#e)" stroke-linecap="round" stroke-linejoin="round" stroke-width="3" d="M13.078 18.63v-1.847H10.31a3.69 3.69 0 0 0-3.691 3.694v3.694"/><path stroke="url(#f)" stroke-linecap="round" stroke-linejoin="round" stroke-width="3" d="M26 24.153v-9.235a1.848 1.848 0 0 0-1.846-1.847h-9.23a1.846 1.846 0 0 0-1.846 1.847v3.694"/><defs><linearGradient id="a" x1="12.155" x2="12.155" y1="22.306" y2="26" gradientUnits="userSpaceOnUse"><stop stop-color="#FFBF00"/><stop offset="1" stop-color="#F2A60C"/></linearGradient><linearGradient id="b" x1="20.462" x2="20.462" y1="22.306" y2="26" gradientUnits="userSpaceOnUse"><stop stop-color="#FFBF00"/><stop offset="1" stop-color="#F2A60C"/></linearGradient><linearGradient id="c" x1="9.274" x2="9.274" y1="2" y2="15.158" gradientUnits="userSpaceOnUse"><stop stop-color="#FFBF00"/><stop offset="1" stop-color="#F2A60C"/></linearGradient><linearGradient id="d" x1="10.771" x2="10.771" y1="6.643" y2="9.414" gradientUnits="userSpaceOnUse"><stop stop-color="#FFBF00"/><stop offset="1" stop-color="#F2A60C"/></linearGradient><linearGradient id="e" x1="9.848" x2="9.848" y1="16.783" y2="24.171" gradientUnits="userSpaceOnUse"><stop stop-color="#FFBF00"/><stop offset="1" stop-color="#F2A60C"/></linearGradient><linearGradient id="f" x1="19.539" x2="19.539" y1="13.071" y2="24.153" gradientUnits="userSpaceOnUse"><stop stop-color="#FFBF00"/><stop offset="1" stop-color="#F2A60C"/></linearGradient></defs></svg>