<svg xmlns="http://www.w3.org/2000/svg" width="40" height="41" fill="none"><path fill="#ffbb00" d="M20 0c-5.428 0-6.11.025-8.242.122C9.625.224 8.172.565 6.9 1.07a9.777 9.777 0 0 0-3.543 2.35A10.014 10.014 0 0 0 1.05 7.024C.555 8.318.217 9.799.12 11.963.025 14.139 0 14.83 0 20.365c0 5.528.025 6.22.12 8.391.1 2.169.435 3.648.93 4.943.512 1.339 1.195 2.474 2.308 3.607a9.744 9.744 0 0 0 3.54 2.349c1.274.504 2.725.847 4.854.947 2.135.096 2.816.122 8.248.122 5.433 0 6.11-.026 8.245-.122 2.127-.102 3.585-.443 4.857-.947a9.774 9.774 0 0 0 3.54-2.35c1.113-1.132 1.795-2.267 2.308-3.606.492-1.295.83-2.774.93-4.943.095-2.171.12-2.863.12-8.394 0-5.53-.025-6.223-.12-8.397-.1-2.166-.438-3.647-.93-4.94a10.012 10.012 0 0 0-2.308-3.607A9.762 9.762 0 0 0 33.1 1.07C31.825.565 30.37.221 28.242.122 26.108.025 25.43 0 19.995 0h.008H20Zm-1.793 3.67h1.796c5.34 0 5.972.018 8.08.117 1.95.09 3.01.423 3.715.7.932.37 1.6.812 2.3 1.525.7.713 1.132 1.39 1.495 2.341.274.716.6 1.795.687 3.78.097 2.146.117 2.79.117 8.224s-.02 6.08-.117 8.226c-.087 1.985-.415 3.062-.688 3.78a6.298 6.298 0 0 1-1.497 2.339 6.17 6.17 0 0 1-2.3 1.522c-.7.28-1.76.61-3.713.702-2.107.097-2.74.12-8.08.12s-5.974-.023-8.082-.12c-1.95-.091-3.008-.422-3.713-.702a6.185 6.185 0 0 1-2.3-1.522 6.324 6.324 0 0 1-1.5-2.342c-.272-.715-.6-1.794-.687-3.78-.095-2.145-.115-2.79-.115-8.228 0-5.437.02-6.078.115-8.224.09-1.985.415-3.064.69-3.782.362-.95.797-1.63 1.497-2.342a6.17 6.17 0 0 1 2.3-1.522c.705-.28 1.763-.61 3.713-.702 1.845-.087 2.56-.112 6.287-.115v.005Zm12.47 3.38c-.315 0-.627.064-.918.186a2.398 2.398 0 0 0-.779.53 2.482 2.482 0 0 0 0 3.456c.223.226.488.406.78.53a2.362 2.362 0 0 0 2.615-.53c.45-.459.703-1.08.703-1.728 0-.648-.253-1.27-.703-1.728a2.379 2.379 0 0 0-1.698-.716ZM20.003 9.906a10.112 10.112 0 0 0-3.98.749 10.259 10.259 0 0 0-3.388 2.256 10.47 10.47 0 0 0-2.268 3.412 10.622 10.622 0 0 0 0 8.08 10.469 10.469 0 0 0 2.268 3.413c.971.973 2.123 1.74 3.387 2.256a10.11 10.11 0 0 0 3.98.748 10.185 10.185 0 0 0 7.16-3.12 10.556 10.556 0 0 0 2.953-7.337c0-2.745-1.06-5.38-2.953-7.337a10.185 10.185 0 0 0-7.16-3.12Zm0 3.668c1.768 0 3.464.715 4.714 1.988a6.85 6.85 0 0 1 1.953 4.8c0 1.8-.703 3.527-1.953 4.8a6.608 6.608 0 0 1-4.714 1.988 6.608 6.608 0 0 1-4.715-1.988 6.851 6.851 0 0 1-1.953-4.8c0-1.8.702-3.527 1.953-4.8a6.608 6.608 0 0 1 4.715-1.988Z"/></svg>