<svg xmlns="http://www.w3.org/2000/svg" width="16" height="16" fill="none"><path fill="url(#a)" fill-rule="evenodd" d="M8 0c.163 0 .32.07.435.195.116.125.18.295.18.472v14.666a.696.696 0 0 1-.18.472A.592.592 0 0 1 8 16a.592.592 0 0 1-.435-.195.696.696 0 0 1-.18-.472V.667c0-.177.064-.347.18-.472A.592.592 0 0 1 8 0ZM5.538 2.667c.164 0 .32.07.436.195.115.125.18.295.18.471v9.334a.696.696 0 0 1-.18.471.592.592 0 0 1-.436.195.592.592 0 0 1-.435-.195.696.696 0 0 1-.18-.471V3.333c0-.176.065-.346.18-.471a.592.592 0 0 1 .435-.195Zm4.923 0c.164 0 .32.07.436.195.115.125.18.295.18.471v9.334a.696.696 0 0 1-.18.471.593.593 0 0 1-.436.195.592.592 0 0 1-.435-.195.696.696 0 0 1-.18-.471V3.333c0-.176.065-.346.18-.471a.592.592 0 0 1 .435-.195Zm-7.384 2c.163 0 .32.07.435.195.115.125.18.295.18.471v5.334a.696.696 0 0 1-.18.471.592.592 0 0 1-.435.195.592.592 0 0 1-.435-.195.696.696 0 0 1-.18-.471V5.333c0-.176.064-.346.18-.471a.592.592 0 0 1 .435-.195Zm9.846 0c.163 0 .32.07.435.195.116.125.18.295.18.471v5.334a.696.696 0 0 1-.18.471.592.592 0 0 1-.435.195.593.593 0 0 1-.435-.195.696.696 0 0 1-.18-.471V5.333c0-.176.065-.346.18-.471a.592.592 0 0 1 .435-.195ZM.615 6c.164 0 .32.07.436.195.115.125.18.295.18.472v2.666a.696.696 0 0 1-.18.472.592.592 0 0 1-.436.195.592.592 0 0 1-.435-.195.696.696 0 0 1-.18-.472V6.667c0-.177.065-.347.18-.472A.592.592 0 0 1 .615 6Zm14.77 0c.163 0 .32.07.435.195.115.125.18.295.18.472v2.666a.696.696 0 0 1-.18.472.593.593 0 0 1-.435.195.592.592 0 0 1-.435-.195.696.696 0 0 1-.18-.472V6.667c0-.177.064-.347.18-.472A.592.592 0 0 1 15.385 6Z" clip-rule="evenodd"/><defs><linearGradient id="a" x1="8" x2="8" y1="0" y2="16" gradientUnits="userSpaceOnUse"><stop stop-color="#FFBF00"/><stop offset="1" stop-color="#F2A60C"/></linearGradient></defs></svg>