<svg xmlns="http://www.w3.org/2000/svg" width="13" height="14" fill="none"><path fill="url(#a)" d="m11.61 9.547-1.82-.226a1.317 1.317 0 0 0-.634.076 1.415 1.415 0 0 0-.54.368L7.296 11.2c-2.033-1.125-3.686-2.923-4.72-5.135L3.9 4.622a1.63 1.63 0 0 0 .409-1.279L4.1 1.38C4.061 1 3.893.65 3.63.394A1.37 1.37 0 0 0 2.675 0H1.436C.626 0-.047.733.003 1.613c.38 6.656 5.273 11.97 11.386 12.384.809.054 1.483-.678 1.483-1.559v-1.347a1.626 1.626 0 0 0-.36-1.035 1.387 1.387 0 0 0-.902-.509Z"/><defs><linearGradient id="a" x1="6.436" x2="6.436" y1="0" y2="14" gradientUnits="userSpaceOnUse"><stop stop-color="#FFBF00"/><stop offset="1" stop-color="#F2A60C"/></linearGradient></defs></svg>