<svg width="59" height="60" viewBox="0 0 59 60" fill="none" xmlns="http://www.w3.org/2000/svg">
<path d="M1.5 15.0843L9 19.5843H38.5L43.5 23.0843L45 28.0843L43.5 33.0843L38.5 36.5843H9L1.5 42.0843V15.0843Z" fill="#F4ECF5"/>
<path d="M48.5032 1L9.9871 1.05635C6.13548 1 1 2.93373 1 10.0804C1 17.2997 6.13548 19.1045 9.9871 19.1045H35.6645L39.5161 19.0482H48.5032C52.3548 19.0482 57.4903 17.2272 57.4903 10.0804C57.4903 2.93374 52.3548 1 48.5032 1Z" fill="black"/>
<path d="M18.9742 48.6988V37.0964H9.9871C6.13548 37.0964 1 39.9325 1 48.6988C1 55.7892 2.92581 59.012 9.9871 59.012C17.0484 59.012 18.9742 55.7892 18.9742 48.6988Z" fill="black"/>
<path d="M35.6645 19.1045C38.6602 19.1045 44.6516 20.853 44.6516 28.0723C44.6516 35.2916 38.6602 37.0964 35.6645 37.0964H18.9742M35.6645 19.1045H9.9871C6.13548 19.1045 1 17.2997 1 10.0804M35.6645 19.1045L39.5161 19.0482H48.5032C52.3548 19.0482 57.4903 17.2272 57.4903 10.0804C57.4903 2.93374 52.3548 1 48.5032 1L9.9871 1.05635C6.13548 1 1 2.93373 1 10.0804M18.9742 37.0964V48.6988C18.9742 55.7892 17.0484 59.012 9.9871 59.012C2.92581 59.012 1 55.7892 1 48.6988M18.9742 37.0964H9.9871C6.13548 37.0964 1 39.9325 1 48.6988M18.9742 37.0964V46.1205M18.9742 37.0964L27.9613 37.0964M1 48.6988V10.0804" stroke="black" stroke-width="1.28916"/>
</svg>
