<svg width="52" height="53" viewBox="0 0 52 53" fill="none" xmlns="http://www.w3.org/2000/svg">
<path d="M48 38C48 39.1046 48.8954 40 50 40C51.1046 40 52 39.1046 52 38C52 36.8954 51.1046 36 50 36C48.8954 36 48 36.8954 48 38Z" fill="#807F7F" fill-opacity="0.3"/>
<path d="M48 50C48 51.1046 48.8954 52 50 52C51.1046 52 52 51.1046 52 50C52 48.8954 51.1046 48 50 48C48.8954 48 48 48.8954 48 50Z" fill="#807F7F" fill-opacity="0.3"/>
<path d="M36 14C36 15.1046 36.8954 16 38 16C39.1046 16 40 15.1046 40 14C40 12.8954 39.1046 12 38 12C36.8954 12 36 12.8954 36 14Z" fill="#807F7F" fill-opacity="0.3"/>
<path d="M36 26C36 27.1046 36.8954 28 38 28C39.1046 28 40 27.1046 40 26C40 24.8954 39.1046 24 38 24C36.8954 24 36 24.8954 36 26Z" fill="#807F7F" fill-opacity="0.3"/>
<path d="M36 38C36 39.1046 36.8954 40 38 40C39.1046 40 40 39.1046 40 38C40 36.8954 39.1046 36 38 36C36.8954 36 36 36.8954 36 38Z" fill="#807F7F" fill-opacity="0.3"/>
<path d="M36 50C36 51.1046 36.8954 52 38 52C39.1046 52 40 51.1046 40 50C40 48.8954 39.1046 48 38 48C36.8954 48 36 48.8954 36 50Z" fill="#807F7F" fill-opacity="0.3"/>
<path d="M24 14C24 15.1046 24.8954 16 26 16C27.1046 16 28 15.1046 28 14C28 12.8954 27.1046 12 26 12C24.8954 12 24 12.8954 24 14Z" fill="#807F7F" fill-opacity="0.3"/>
<path d="M24 26C24 27.1046 24.8954 28 26 28C27.1046 28 28 27.1046 28 26C28 24.8954 27.1046 24 26 24C24.8954 24 24 24.8954 24 26Z" fill="#807F7F" fill-opacity="0.3"/>
<path d="M24 38C24 39.1046 24.8954 40 26 40C27.1046 40 28 39.1046 28 38C28 36.8954 27.1046 36 26 36C24.8954 36 24 36.8954 24 38Z" fill="#807F7F" fill-opacity="0.3"/>
<path d="M24 50C24 51.1046 24.8954 52 26 52C27.1046 52 28 51.1046 28 50C28 48.8954 27.1046 48 26 48C24.8954 48 24 48.8954 24 50Z" fill="#807F7F" fill-opacity="0.3"/>
<path d="M12 2C12 3.10457 12.8954 4 14 4C15.1046 4 16 3.10457 16 2C16 0.89543 15.1046 0 14 0C12.8954 0 12 0.89543 12 2Z" fill="#807F7F" fill-opacity="0.3"/>
<path d="M0 3C0 4.10457 0.895432 5 2 5C3.10457 5 4 4.10457 4 3C4 1.89543 3.10457 1 2 1C0.895432 1 0 1.89543 0 3Z" fill="#807F7F" fill-opacity="0.3"/>
<path d="M12 14C12 15.1046 12.8954 16 14 16C15.1046 16 16 15.1046 16 14C16 12.8954 15.1046 12 14 12C12.8954 12 12 12.8954 12 14Z" fill="#807F7F" fill-opacity="0.3"/>
<path d="M0 15C0 16.1046 0.895432 17 2 17C3.10457 17 4 16.1046 4 15C4 13.8954 3.10457 13 2 13C0.895432 13 0 13.8954 0 15Z" fill="#807F7F" fill-opacity="0.3"/>
<path d="M12 26C12 27.1046 12.8954 28 14 28C15.1046 28 16 27.1046 16 26C16 24.8954 15.1046 24 14 24C12.8954 24 12 24.8954 12 26Z" fill="#807F7F" fill-opacity="0.3"/>
<path d="M0 27C0 28.1046 0.895432 29 2 29C3.10457 29 4 28.1046 4 27C4 25.8954 3.10457 25 2 25C0.895432 25 0 25.8954 0 27Z" fill="#807F7F" fill-opacity="0.3"/>
<path d="M12 38C12 39.1046 12.8954 40 14 40C15.1046 40 16 39.1046 16 38C16 36.8954 15.1046 36 14 36C12.8954 36 12 36.8954 12 38Z" fill="#807F7F" fill-opacity="0.3"/>
<path d="M0 39C0 40.1046 0.895432 41 2 41C3.10457 41 4 40.1046 4 39C4 37.8954 3.10457 37 2 37C0.895432 37 0 37.8954 0 39Z" fill="#807F7F" fill-opacity="0.3"/>
<path d="M12 50C12 51.1046 12.8954 52 14 52C15.1046 52 16 51.1046 16 50C16 48.8954 15.1046 48 14 48C12.8954 48 12 48.8954 12 50Z" fill="#807F7F" fill-opacity="0.3"/>
<path d="M0 51C0 52.1046 0.895432 53 2 53C3.10457 53 4 52.1046 4 51C4 49.8954 3.10457 49 2 49C0.895432 49 0 49.8954 0 51Z" fill="#807F7F" fill-opacity="0.3"/>
</svg>
