<svg xmlns="http://www.w3.org/2000/svg" width="228" height="36" fill="none"><path fill="#F7F7F7" d="M32.96 26.08c.347 0 .613.16.8.48.213.32.32.76.32 1.32 0 1.04-.253 1.867-.76 2.48-1.493 1.787-2.947 3.04-4.36 3.76-1.387.72-3.067 1.08-5.04 1.08-1.387 0-2.667-.173-3.84-.52-1.173-.347-2.6-.867-4.28-1.56a39.175 39.175 0 0 0-4.4-1.64C10.04 33.96 8 35.2 5.28 35.2c-1.493 0-2.68-.333-3.56-1-.907-.693-1.36-1.573-1.36-2.64 0-1.307.627-2.387 1.88-3.24 1.253-.88 2.92-1.32 5-1.32h.52l.72-11.64c.16-2.667.64-4.867 1.44-6.6a13.043 13.043 0 0 1 3.32-4.44 12.402 12.402 0 0 1 4.2-2.4c1.573-.56 3.24-.84 5-.84 2.88 0 5.093.747 6.64 2.24 1.547 1.493 2.32 3.44 2.32 5.84 0 1.627-.293 2.947-.88 3.96-.587.987-1.4 1.48-2.44 1.48-.747 0-1.333-.173-1.76-.52-.427-.373-.64-.893-.64-1.56 0-.24.053-.68.16-1.32.16-.747.24-1.413.24-2 0-1.12-.333-2-1-2.64-.64-.667-1.627-1-2.96-1-2.347 0-4.16.773-5.44 2.32-1.28 1.52-2.093 3.92-2.44 7.2l-.92 9.08c-.133 1.28-.307 2.387-.52 3.32 1.707.293 3.84.76 6.4 1.4 1.493.373 2.64.64 3.44.8.8.16 1.507.24 2.12.24 1.547 0 2.867-.253 3.96-.76 1.12-.533 2.173-1.373 3.16-2.52.32-.373.68-.56 1.08-.56Z"/><path fill="#F7F7F7" d="M34.914 35.2c-1.2 0-2.187-.547-2.96-1.64-.747-1.12-1.12-2.507-1.12-4.16 0-2 .133-3.827.4-5.48.267-1.68.707-3.453 1.32-5.32.267-.8.64-1.373 1.12-1.72.48-.347 1.24-.52 2.28-.52.587 0 .987.093 1.2.28.24.187.36.467.36.84 0 .213-.147.933-.44 2.16-.267.987-.48 1.88-.64 2.68-.533 2.8-.8 4.667-.8 5.6 0 .56.067.96.2 1.2.133.213.347.32.64.32.4 0 .893-.4 1.48-1.2.613-.8 1.253-2.013 1.92-3.64.693-1.627 1.36-3.627 2-6 .213-.8.533-1.373.96-1.72.453-.347 1.12-.52 2-.52.613 0 1.04.08 1.28.24.24.133.36.4.36.8 0 .667-.333 2.493-1 5.48-.747 3.413-1.12 5.52-1.12 6.32 0 .507.107.907.32 1.2.213.267.493.4.84.4.533 0 1.16-.32 1.88-.96.747-.667 1.733-1.733 2.96-3.2.32-.373.68-.56 1.08-.56.347 0 .613.16.8.48.213.32.32.76.32 1.32 0 1.067-.253 1.893-.76 2.48-1.147 1.413-2.387 2.573-3.72 3.48-1.307.907-2.8 1.36-4.48 1.36-1.28 0-2.227-.493-2.84-1.48-.587-.987-.88-2.373-.88-4.16-.453 1.813-1.133 3.213-2.04 4.2-.907.96-1.88 1.44-2.92 1.44Z"/><path fill="#F7F7F7" d="M67.15 26.08c.347 0 .614.16.8.48.214.32.32.76.32 1.32 0 1.067-.253 1.893-.76 2.48-1.146 1.413-2.4 2.573-3.76 3.48-1.36.907-2.92 1.36-4.68 1.36-5.44 0-8.16-3.827-8.16-11.48 0-1.173.04-2.36.12-3.56h-1.56c-.8 0-1.346-.147-1.64-.44-.266-.293-.4-.76-.4-1.4 0-1.493.6-2.24 1.8-2.24h2.28c.454-2.933 1.147-5.613 2.08-8.04.934-2.427 2.054-4.36 3.36-5.8C58.285.8 59.71.08 61.23.08c1.12 0 2 .493 2.64 1.48.64.987.96 2.227.96 3.72 0 4.133-1.733 7.733-5.2 10.8h4.48c.427 0 .734.093.92.28.187.187.28.533.28 1.04 0 1.84-1.506 2.76-4.52 2.76h-4.88a83.209 83.209 0 0 0-.08 3.12c0 2.773.32 4.72.96 5.84.667 1.12 1.707 1.68 3.12 1.68 1.147 0 2.16-.347 3.04-1.04.88-.693 1.92-1.733 3.12-3.12.32-.373.68-.56 1.08-.56Zm-7-22.16c-.4 0-.853.507-1.36 1.52-.48.987-.946 2.373-1.4 4.16-.426 1.76-.786 3.72-1.08 5.88 1.574-1.36 2.747-2.88 3.52-4.56.8-1.707 1.2-3.253 1.2-4.64 0-1.573-.293-2.36-.88-2.36Z"/><path fill="#F7F7F7" d="M82.854 26.08c.346 0 .613.16.8.48.213.32.32.76.32 1.32 0 1.067-.254 1.893-.76 2.48-.987 1.2-2.387 2.307-4.2 3.32a11.486 11.486 0 0 1-5.76 1.52c-2.8 0-4.974-.76-6.52-2.28-1.547-1.52-2.32-3.6-2.32-6.24 0-1.84.386-3.547 1.16-5.12.773-1.6 1.84-2.867 3.2-3.8 1.386-.933 2.946-1.4 4.68-1.4 1.546 0 2.786.467 3.72 1.4.933.907 1.4 2.147 1.4 3.72 0 1.84-.667 3.427-2 4.76-1.307 1.307-3.534 2.347-6.68 3.12.666 1.227 1.933 1.84 3.8 1.84 1.2 0 2.56-.413 4.08-1.24a13.722 13.722 0 0 0 4-3.32c.32-.373.68-.56 1.08-.56Zm-10.08-5.8c-.987 0-1.827.573-2.52 1.72-.667 1.147-1 2.533-1 4.16v.08c1.573-.373 2.813-.933 3.72-1.68.906-.747 1.36-1.613 1.36-2.6 0-.507-.147-.907-.44-1.2-.267-.32-.64-.48-1.12-.48Z"/><path fill="#F7F7F7" d="M83.557 35.2c-1.014 0-1.734-.533-2.16-1.6-.4-1.067-.6-2.773-.6-5.12 0-3.467.493-6.76 1.48-9.88.24-.773.626-1.333 1.16-1.68.56-.373 1.333-.56 2.32-.56.533 0 .906.067 1.12.2.213.133.32.387.32.76 0 .427-.2 1.387-.6 2.88-.267 1.067-.48 2-.64 2.8-.16.8-.293 1.787-.4 2.96.88-2.293 1.867-4.16 2.96-5.6 1.093-1.44 2.16-2.467 3.2-3.08 1.067-.613 2.04-.92 2.92-.92 1.733 0 2.6.867 2.6 2.6 0 .347-.12 1.187-.36 2.52-.213 1.067-.32 1.733-.32 2 0 .933.333 1.4 1 1.4.746 0 1.706-.587 2.88-1.76.347-.347.707-.52 1.08-.52.347 0 .613.16.8.48.213.293.32.693.32 1.2 0 .987-.267 1.76-.8 2.32a11.115 11.115 0 0 1-2.64 2c-.987.533-2.04.8-3.16.8-1.413 0-2.494-.36-3.24-1.08-.72-.72-1.08-1.693-1.08-2.92 0-.4.04-.8.12-1.2.053-.533.08-.893.08-1.08 0-.427-.147-.64-.44-.64-.4 0-.934.453-1.6 1.36-.64.88-1.28 2.053-1.92 3.52a28.732 28.732 0 0 0-1.56 4.64c-.294 1.253-.64 2.107-1.04 2.56-.373.427-.974.64-1.8.64Z"/><path fill="#F7F7F7" d="M104.16 13.72c-1.12 0-1.96-.253-2.52-.76-.56-.533-.84-1.267-.84-2.2 0-.933.36-1.707 1.08-2.32.747-.64 1.667-.96 2.76-.96.987 0 1.787.24 2.4.72s.92 1.16.92 2.04c0 1.067-.347 1.92-1.04 2.56-.693.613-1.613.92-2.76.92Zm-.32 21.48c-1.733 0-3-.613-3.8-1.84-.773-1.227-1.16-2.853-1.16-4.88 0-1.2.147-2.733.44-4.6a45.43 45.43 0 0 1 1.2-5.28c.24-.853.56-1.44.96-1.76.4-.32 1.04-.48 1.92-.48 1.36 0 2.04.453 2.04 1.36 0 .667-.253 2.213-.76 4.64-.64 2.933-.96 4.92-.96 5.96 0 .8.107 1.413.32 1.84.213.427.573.64 1.08.64.48 0 1.08-.333 1.8-1s1.68-1.72 2.88-3.16c.32-.373.68-.56 1.08-.56.347 0 .613.16.8.48.213.32.32.76.32 1.32 0 1.067-.253 1.893-.76 2.48-2.64 3.227-5.107 4.84-7.4 4.84Z"/><path fill="#F7F7F7" d="M113.364 35.2c-1.52 0-2.76-.6-3.72-1.8-.934-1.2-1.4-2.773-1.4-4.72 0-2.133.493-4.147 1.48-6.04.986-1.92 2.293-3.453 3.92-4.6 1.653-1.173 3.4-1.76 5.24-1.76.586 0 .973.12 1.16.36.213.213.386.613.52 1.2a8.158 8.158 0 0 1 1.68-.16c.64 0 1.133.16 1.48.48.346.32.52.773.52 1.36 0 .613-.134 1.68-.4 3.2a65.709 65.709 0 0 0-.68 4.68c-.16 1.467-.24 3.12-.24 4.96 0 1.013-.214 1.747-.64 2.2-.4.427-1.067.64-2 .64-.907 0-1.587-.213-2.04-.64-.427-.453-.64-1.173-.64-2.16l.04-.64c-.827 2.293-2.254 3.44-4.28 3.44Zm1.56-4.04c.746 0 1.426-.52 2.04-1.56.613-1.04 1.16-2.893 1.64-5.56l.76-4.04c-1.094.027-2.107.453-3.04 1.28-.934.8-1.68 1.867-2.24 3.2a10.838 10.838 0 0 0-.84 4.24c0 .8.146 1.413.44 1.84.32.4.733.6 1.24.6ZM171.23 1.84c.747.107 1.253.333 1.52.68.293.347.44.8.44 1.36 0 1.84-.987 2.693-2.96 2.56l-1.4-.12a140.22 140.22 0 0 0-4.72-.32 94.621 94.621 0 0 0-4.88-.12h-1.8c-.32 3.947-.653 7.547-1 10.8l6.88-.12c.987 0 1.64.173 1.96.52.347.347.52.813.52 1.4 0 .907-.267 1.627-.8 2.16-.533.507-1.293.76-2.28.76h-6.84l-.24 1.72c-.56 4.4-1.76 7.533-3.6 9.4-1.813 1.867-4.32 2.8-7.52 2.8-1.813 0-3.48-.387-5-1.16-1.52-.8-2.64-1.76-3.36-2.88-.293-.453-.44-1-.44-1.64 0-.64.147-1.2.44-1.68.32-.48.707-.72 1.16-.72.32 0 .627.107.92.32.32.213.72.627 1.2 1.24 1.28 1.68 2.867 2.52 4.76 2.52 1.52 0 2.787-.613 3.8-1.84 1.04-1.253 1.707-3.213 2-5.88l.24-2.2h-1.92c-.613 0-1.147-.173-1.6-.52-.427-.347-.64-.84-.64-1.48 0-.827.213-1.453.64-1.88.427-.453 1.053-.68 1.88-.68.747 0 1.48-.013 2.2-.04.32-2.933.667-6.493 1.04-10.68-2.88.267-4.907.733-6.08 1.4-1.173.667-1.76 1.653-1.76 2.96 0 .907.267 1.773.8 2.6.16.24.24.48.24.72 0 .48-.267.907-.8 1.28a3.23 3.23 0 0 1-1.8.52c-.72 0-1.333-.213-1.84-.64-.32-.267-.627-.813-.92-1.64-.293-.827-.44-1.747-.44-2.76 0-3.307 1.693-5.707 5.08-7.2 3.413-1.493 8.387-2.24 14.92-2.24 4.533 0 8.533.24 12 .72ZM169.66 35.2c-1.653 0-2.973-.6-3.96-1.8-.986-1.2-1.48-2.773-1.48-4.72 0-2.133.494-4.147 1.48-6.04.987-1.92 2.294-3.453 3.92-4.6 1.654-1.173 3.4-1.76 5.24-1.76.587 0 .974.12 1.16.36.214.213.387.613.52 1.2a9.392 9.392 0 0 1 1.76-.16c1.307 0 1.96.467 1.96 1.4 0 .56-.2 1.893-.6 4-.613 3.067-.92 5.2-.92 6.4 0 .4.094.72.28.96.214.24.48.36.8.36.507 0 1.12-.32 1.84-.96.72-.667 1.694-1.733 2.92-3.2.32-.373.68-.56 1.08-.56.347 0 .614.16.8.48.214.32.32.76.32 1.32 0 1.067-.253 1.893-.76 2.48-1.093 1.36-2.253 2.507-3.48 3.44-1.226.933-2.413 1.4-3.56 1.4-.88 0-1.693-.293-2.44-.88-.72-.613-1.266-1.44-1.64-2.48-1.386 2.24-3.133 3.36-5.24 3.36Zm1.44-4.04c.587 0 1.147-.347 1.68-1.04.534-.693.92-1.613 1.16-2.76l1.48-7.36c-1.12.027-2.16.453-3.12 1.28-.933.8-1.68 1.867-2.24 3.2a10.838 10.838 0 0 0-.84 4.24c0 .827.16 1.44.48 1.84.347.4.814.6 1.4.6Z"/><path fill="#F7F7F7" d="M186.369 35.2c-1.013 0-1.733-.533-2.16-1.6-.4-1.067-.6-2.773-.6-5.12 0-3.467.494-6.76 1.48-9.88.24-.773.627-1.333 1.16-1.68.56-.373 1.334-.56 2.32-.56.534 0 .907.067 1.12.2.214.133.32.387.32.76 0 .427-.2 1.387-.6 2.88-.266 1.067-.48 2-.64 2.8-.16.8-.293 1.787-.4 2.96.88-2.293 1.867-4.16 2.96-5.6 1.094-1.44 2.16-2.467 3.2-3.08 1.067-.613 2.04-.92 2.92-.92 1.734 0 2.6.867 2.6 2.6 0 .347-.12 1.187-.36 2.52-.213 1.067-.32 1.733-.32 2 0 .933.334 1.4 1 1.4.747 0 1.707-.587 2.88-1.76.347-.347.707-.52 1.08-.52.347 0 .614.16.8.48.214.293.32.693.32 1.2 0 .987-.266 1.76-.8 2.32a11.077 11.077 0 0 1-2.64 2c-.986.533-2.04.8-3.16.8-1.413 0-2.493-.36-3.24-1.08-.72-.72-1.08-1.693-1.08-2.92 0-.4.04-.8.12-1.2.054-.533.08-.893.08-1.08 0-.427-.146-.64-.44-.64-.4 0-.933.453-1.6 1.36-.64.88-1.28 2.053-1.92 3.52a28.732 28.732 0 0 0-1.56 4.64c-.293 1.253-.64 2.107-1.04 2.56-.373.427-.973.64-1.8.64Z"/><path fill="#F7F7F7" d="M206.972 13.72c-1.12 0-1.96-.253-2.52-.76-.56-.533-.84-1.267-.84-2.2 0-.933.36-1.707 1.08-2.32.747-.64 1.667-.96 2.76-.96.987 0 1.787.24 2.4.72.614.48.92 1.16.92 2.04 0 1.067-.346 1.92-1.04 2.56-.693.613-1.613.92-2.76.92Zm-.32 21.48c-1.733 0-3-.613-3.8-1.84-.773-1.227-1.16-2.853-1.16-4.88 0-1.2.147-2.733.44-4.6a45.43 45.43 0 0 1 1.2-5.28c.24-.853.56-1.44.96-1.76.4-.32 1.04-.48 1.92-.48 1.36 0 2.04.453 2.04 1.36 0 .667-.253 2.213-.76 4.64-.64 2.933-.96 4.92-.96 5.96 0 .8.107 1.413.32 1.84.214.427.574.64 1.08.64.48 0 1.08-.333 1.8-1s1.68-1.72 2.88-3.16c.32-.373.68-.56 1.08-.56.347 0 .614.16.8.48.214.32.32.76.32 1.32 0 1.067-.253 1.893-.76 2.48-2.64 3.227-5.106 4.84-7.4 4.84Z"/><path fill="#F7F7F7" d="M216.176 35.2c-1.52 0-2.76-.6-3.72-1.8-.933-1.2-1.4-2.773-1.4-4.72 0-2.133.494-4.147 1.48-6.04.987-1.92 2.294-3.453 3.92-4.6 1.654-1.173 3.4-1.76 5.24-1.76.587 0 .974.12 1.16.36.214.213.387.613.52 1.2a8.172 8.172 0 0 1 1.68-.16c.64 0 1.134.16 1.48.48.347.32.52.773.52 1.36 0 .613-.133 1.68-.4 3.2a66.287 66.287 0 0 0-.68 4.68c-.16 1.467-.24 3.12-.24 4.96 0 1.013-.213 1.747-.64 2.2-.4.427-1.066.64-2 .64-.906 0-1.586-.213-2.04-.64-.426-.453-.64-1.173-.64-2.16l.04-.64c-.826 2.293-2.253 3.44-4.28 3.44Zm1.56-4.04c.747 0 1.427-.52 2.04-1.56.614-1.04 1.16-2.893 1.64-5.56l.76-4.04c-1.093.027-2.106.453-3.04 1.28-.933.8-1.68 1.867-2.24 3.2a10.838 10.838 0 0 0-.84 4.24c0 .8.147 1.413.44 1.84.32.4.734.6 1.24.6Z"/></svg>