<svg width="12" height="16" viewBox="0 0 12 16" fill="none" xmlns="http://www.w3.org/2000/svg">
<path d="M6.41598 0.222612C6.37032 0.154133 6.30846 0.0979856 6.23589 0.059152C6.16332 0.0203184 6.08229 0 5.99998 0C5.91768 0 5.83664 0.0203184 5.76407 0.059152C5.6915 0.0979856 5.62964 0.154133 5.58398 0.222612L2.58398 4.72261C2.53388 4.79791 2.50513 4.88538 2.50081 4.97572C2.49649 5.06606 2.51675 5.15588 2.55944 5.23561C2.60213 5.31535 2.66565 5.38201 2.74323 5.4285C2.82081 5.47499 2.90954 5.49957 2.99998 5.49961H3.09798L1.07598 8.73461C1.02868 8.8103 1.0025 8.89727 1.00015 8.98649C0.997812 9.07571 1.01939 9.16393 1.06266 9.242C1.10593 9.32006 1.1693 9.38512 1.2462 9.43042C1.32311 9.47572 1.41073 9.49961 1.49998 9.49961H1.69098L0.0529834 12.7756C0.014785 12.8518 -0.00328506 12.9366 0.000490512 13.0218C0.00426609 13.1069 0.0297619 13.1897 0.0745548 13.2623C0.119348 13.3348 0.18195 13.3947 0.256411 13.4363C0.330872 13.4778 0.414719 13.4996 0.499983 13.4996H4.99998V15.9996H6.99998V13.4996H11.5C11.5852 13.4996 11.6691 13.4778 11.7436 13.4363C11.818 13.3947 11.8806 13.3348 11.9254 13.2623C11.9702 13.1897 11.9957 13.1069 11.9995 13.0218C12.0033 12.9366 11.9852 12.8518 11.947 12.7756L10.31 9.49961H10.501C10.5902 9.49961 10.6779 9.47572 10.7548 9.43042C10.8317 9.38512 10.895 9.32006 10.9383 9.242C10.9816 9.16393 11.0032 9.07571 11.0008 8.98649C10.9985 8.89727 10.9723 8.8103 10.925 8.73461L8.90198 5.49961H8.99998C9.09043 5.49957 9.17916 5.47499 9.25674 5.4285C9.33432 5.38201 9.39784 5.31535 9.44052 5.23561C9.48321 5.15588 9.50348 5.06606 9.49915 4.97572C9.49483 4.88538 9.46609 4.79791 9.41598 4.72261L6.41598 0.222612ZM4.43698 4.75761C4.39379 4.67952 4.33049 4.61442 4.25365 4.56905C4.1768 4.52368 4.08922 4.49971 3.99998 4.49961H3.93398L5.99998 1.40061L8.06598 4.49961H7.99998C7.91073 4.49961 7.82311 4.5235 7.7462 4.5688C7.6693 4.6141 7.60593 4.67916 7.56266 4.75723C7.51939 4.83529 7.49781 4.92351 7.50015 5.01274C7.5025 5.10196 7.52868 5.18893 7.57598 5.26461L9.59798 8.49961H9.49998C9.41472 8.49961 9.33087 8.52142 9.25641 8.56296C9.18195 8.6045 9.11935 8.66439 9.07456 8.73694C9.02976 8.80949 9.00427 8.89229 9.00049 8.97747C8.99672 9.06265 9.01479 9.14738 9.05298 9.22361L10.69 12.4996H1.30898L2.94698 9.22361C2.98518 9.14738 3.00325 9.06265 2.99948 8.97747C2.9957 8.89229 2.9702 8.80949 2.92541 8.73694C2.88062 8.66439 2.81802 8.6045 2.74356 8.56296C2.66909 8.52142 2.58525 8.49961 2.49998 8.49961H2.40198L4.42398 5.26461C4.47116 5.18894 4.49725 5.10203 4.49954 5.01288C4.50182 4.92374 4.48023 4.8356 4.43698 4.75761Z" fill="url(#paint0_linear_33_284)"/>
<defs>
<linearGradient id="paint0_linear_33_284" x1="5.99998" y1="0" x2="5.99998" y2="15.9996" gradientUnits="userSpaceOnUse">
<stop stop-color="#FFBF00"/>
<stop offset="1" stop-color="#F2A60C"/>
</linearGradient>
</defs>
</svg>
