<svg width="12" height="16" viewBox="0 0 12 16" fill="none" xmlns="http://www.w3.org/2000/svg">
<path d="M12 1.91383C12 1.62291 11.9307 1.33582 11.7973 1.07438C11.664 0.812939 11.4701 0.584031 11.2304 0.405052C10.9908 0.226074 10.7116 0.101736 10.4142 0.0414894C10.1168 -0.0187574 9.8089 -0.0133277 9.514 0.0573661L7.514 0.535836C7.08151 0.639515 6.69762 0.878512 6.42331 1.21487C6.149 1.55122 6.00001 1.96564 6 2.3923V10.6335C5.36615 10.382 4.68614 10.2545 4 10.2584C3 10.2584 2.052 10.5148 1.324 10.9799C0.604 11.4392 0 12.1818 0 13.1292C0 14.0765 0.602 14.8191 1.324 15.2785C2.052 15.7435 3.002 16 4 16C5 16 5.948 15.7435 6.676 15.2785C7.396 14.8191 8 14.0765 8 13.1292V6.22007L12 5.26312V1.91383Z" fill="url(#paint0_linear_33_286)"/>
<defs>
<linearGradient id="paint0_linear_33_286" x1="6" y1="0" x2="6" y2="16" gradientUnits="userSpaceOnUse">
<stop stop-color="#FFBF00"/>
<stop offset="1" stop-color="#F2A60C"/>
</linearGradient>
</defs>
</svg>
