<svg width="16" height="16" viewBox="0 0 16 16" fill="none" xmlns="http://www.w3.org/2000/svg">
<path fill-rule="evenodd" clip-rule="evenodd" d="M8 0C8.16321 0 8.31974 0.070238 8.43514 0.195262C8.55055 0.320287 8.61539 0.489856 8.61539 0.666667V15.3333C8.61539 15.5101 8.55055 15.6797 8.43514 15.8047C8.31974 15.9298 8.16321 16 8 16C7.83679 16 7.68026 15.9298 7.56486 15.8047C7.44945 15.6797 7.38462 15.5101 7.38462 15.3333V0.666667C7.38462 0.489856 7.44945 0.320287 7.56486 0.195262C7.68026 0.070238 7.83679 0 8 0ZM5.53846 2.66667C5.70167 2.66667 5.8582 2.7369 5.9736 2.86193C6.08901 2.98695 6.15385 3.15652 6.15385 3.33333V12.6667C6.15385 12.8435 6.08901 13.013 5.9736 13.1381C5.8582 13.2631 5.70167 13.3333 5.53846 13.3333C5.37525 13.3333 5.21873 13.2631 5.10332 13.1381C4.98791 13.013 4.92308 12.8435 4.92308 12.6667V3.33333C4.92308 3.15652 4.98791 2.98695 5.10332 2.86193C5.21873 2.7369 5.37525 2.66667 5.53846 2.66667ZM10.4615 2.66667C10.6247 2.66667 10.7813 2.7369 10.8967 2.86193C11.0121 2.98695 11.0769 3.15652 11.0769 3.33333V12.6667C11.0769 12.8435 11.0121 13.013 10.8967 13.1381C10.7813 13.2631 10.6247 13.3333 10.4615 13.3333C10.2983 13.3333 10.1418 13.2631 10.0264 13.1381C9.91099 13.013 9.84615 12.8435 9.84615 12.6667V3.33333C9.84615 3.15652 9.91099 2.98695 10.0264 2.86193C10.1418 2.7369 10.2983 2.66667 10.4615 2.66667ZM3.07692 4.66667C3.24013 4.66667 3.39666 4.7369 3.51207 4.86193C3.62747 4.98695 3.69231 5.15652 3.69231 5.33333V10.6667C3.69231 10.8435 3.62747 11.013 3.51207 11.1381C3.39666 11.2631 3.24013 11.3333 3.07692 11.3333C2.91371 11.3333 2.75719 11.2631 2.64178 11.1381C2.52637 11.013 2.46154 10.8435 2.46154 10.6667V5.33333C2.46154 5.15652 2.52637 4.98695 2.64178 4.86193C2.75719 4.7369 2.91371 4.66667 3.07692 4.66667ZM12.9231 4.66667C13.0863 4.66667 13.2428 4.7369 13.3582 4.86193C13.4736 4.98695 13.5385 5.15652 13.5385 5.33333V10.6667C13.5385 10.8435 13.4736 11.013 13.3582 11.1381C13.2428 11.2631 13.0863 11.3333 12.9231 11.3333C12.7599 11.3333 12.6033 11.2631 12.4879 11.1381C12.3725 11.013 12.3077 10.8435 12.3077 10.6667V5.33333C12.3077 5.15652 12.3725 4.98695 12.4879 4.86193C12.6033 4.7369 12.7599 4.66667 12.9231 4.66667ZM0.615385 6C0.778595 6 0.93512 6.07024 1.05053 6.19526C1.16593 6.32029 1.23077 6.48986 1.23077 6.66667V9.33333C1.23077 9.51014 1.16593 9.67971 1.05053 9.80474C0.93512 9.92976 0.778595 10 0.615385 10C0.452174 10 0.295649 9.92976 0.180242 9.80474C0.0648351 9.67971 0 9.51014 0 9.33333V6.66667C0 6.48986 0.0648351 6.32029 0.180242 6.19526C0.295649 6.07024 0.452174 6 0.615385 6ZM15.3846 6C15.5478 6 15.7044 6.07024 15.8198 6.19526C15.9352 6.32029 16 6.48986 16 6.66667V9.33333C16 9.51014 15.9352 9.67971 15.8198 9.80474C15.7044 9.92976 15.5478 10 15.3846 10C15.2214 10 15.0649 9.92976 14.9495 9.80474C14.8341 9.67971 14.7692 9.51014 14.7692 9.33333V6.66667C14.7692 6.48986 14.8341 6.32029 14.9495 6.19526C15.0649 6.07024 15.2214 6 15.3846 6Z" fill="url(#paint0_linear_33_289)"/>
<defs>
<linearGradient id="paint0_linear_33_289" x1="8" y1="0" x2="8" y2="16" gradientUnits="userSpaceOnUse">
<stop stop-color="#FFBF00"/>
<stop offset="1" stop-color="#F2A60C"/>
</linearGradient>
</defs>
</svg>
