<svg width="183" height="59" viewBox="0 0 183 59" fill="none" xmlns="http://www.w3.org/2000/svg">
<g clip-path="url(#clip0_52_14)">
<g filter="url(#filter0_d_52_14)">
<path d="M0.5 14.0843L8 18.5843H37.5L42.5 22.0843L44 27.0843L42.5 32.0843L37.5 35.5843H8L0.5 41.0843V14.0843Z" fill="#F4ECF5"/>
<path d="M47.5032 0L8.9871 0.0563475C5.13548 0 0 1.93373 0 9.08044C0 16.2997 5.13548 18.1045 8.9871 18.1045H34.6645L38.5161 18.0482H47.5032C51.3548 18.0482 56.4903 16.2272 56.4903 9.08044C56.4903 1.93374 51.3548 0 47.5032 0Z" fill="black"/>
<path d="M17.9742 47.6988V36.0964H8.9871C5.13548 36.0964 0 38.9325 0 47.6988C0 54.7892 1.92581 58.012 8.9871 58.012C16.0484 58.012 17.9742 54.7892 17.9742 47.6988Z" fill="black"/>
<path d="M34.6645 18.1045C37.6602 18.1045 43.6516 19.853 43.6516 27.0723C43.6516 34.2916 37.6602 36.0964 34.6645 36.0964H17.9742M34.6645 18.1045H8.9871C5.13548 18.1045 0 16.2997 0 9.08044M34.6645 18.1045L38.5161 18.0482H47.5032C51.3548 18.0482 56.4903 16.2272 56.4903 9.08044C56.4903 1.93374 51.3548 0 47.5032 0L8.9871 0.0563475C5.13548 0 0 1.93373 0 9.08044M17.9742 36.0964V47.6988C17.9742 54.7892 16.0484 58.012 8.9871 58.012C1.92581 58.012 0 54.7892 0 47.6988M17.9742 36.0964H8.9871C5.13548 36.0964 0 38.9325 0 47.6988M17.9742 36.0964V45.1205M17.9742 36.0964L26.9613 36.0964M0 47.6988V9.08044" stroke="black" stroke-width="1.28916"/>
<path d="M69.0855 58.8689C66.3135 58.8689 63.8291 58.3459 61.6324 57.2998C59.488 56.2014 57.7881 54.737 56.5328 52.9063C55.3299 51.0757 54.7284 49.0098 54.7284 46.7085C54.7284 43.8841 55.4606 41.6612 56.9251 40.0398C58.3896 38.3661 60.7694 37.1632 64.0645 36.4309C67.3596 35.6987 71.7792 35.3326 77.3233 35.3326H81.246V40.9813H77.4017C74.1589 40.9813 71.5699 41.1382 69.6347 41.452C67.6995 41.7658 66.3135 42.315 65.4766 43.0995C64.6921 43.8318 64.2998 44.8778 64.2998 46.2377C64.2998 47.9637 64.9013 49.3759 66.1043 50.4743C67.3072 51.5726 68.9809 52.1218 71.1254 52.1218C72.8514 52.1218 74.3681 51.7295 75.6757 50.945C77.0356 50.1081 78.1078 48.9836 78.8923 47.5714C79.6769 46.1593 80.0692 44.5379 80.0692 42.7073V33.685C80.0692 31.0699 79.4938 29.187 78.3432 28.0363C77.1925 26.8856 75.2573 26.3103 72.5375 26.3103C71.0208 26.3103 69.3732 26.4934 67.5949 26.8595C65.8689 27.2256 64.0383 27.8532 62.1031 28.7424C61.1094 29.2131 60.2202 29.3439 59.4357 29.1347C58.7034 28.9255 58.1281 28.507 57.7097 27.8794C57.2912 27.1995 57.082 26.4672 57.082 25.6827C57.082 24.8981 57.2912 24.1397 57.7097 23.4075C58.1281 22.6229 58.8342 22.0476 59.8279 21.6815C62.2339 20.6877 64.5352 19.9817 66.7319 19.5632C68.9809 19.1448 71.0208 18.9356 72.8514 18.9356C76.6172 18.9356 79.703 19.5109 82.109 20.6616C84.5672 21.8123 86.3978 23.5644 87.6008 25.918C88.8038 28.2194 89.4052 31.2006 89.4052 34.8618V53.6909C89.4052 55.3123 89.013 56.5676 88.2284 57.4567C87.4439 58.2936 86.3194 58.712 84.8549 58.712C83.3904 58.712 82.2397 58.2936 81.4029 57.4567C80.6183 56.5676 80.2261 55.3123 80.2261 53.6909V49.9251H80.8537C80.4876 51.7557 79.7553 53.3509 78.657 54.7108C77.6109 56.0184 76.2772 57.0383 74.6558 57.7705C73.0344 58.5028 71.1777 58.8689 69.0855 58.8689Z" fill="black"/>
<path d="M104.38 58.712C102.759 58.712 101.504 58.2936 100.614 57.4567C99.7776 56.5676 99.3591 55.3123 99.3591 53.6909V24.0351C99.3591 22.4137 99.7776 21.1846 100.614 20.3478C101.451 19.5109 102.628 19.0925 104.145 19.0925C105.662 19.0925 106.838 19.5109 107.675 20.3478C108.512 21.1846 108.931 22.4137 108.931 24.0351V28.9778H108.146C108.878 25.8396 110.317 23.4598 112.461 21.8384C114.605 20.217 117.456 19.2494 121.013 18.9356C122.111 18.831 122.974 19.1186 123.602 19.7986C124.281 20.4262 124.674 21.42 124.778 22.7799C124.883 24.0874 124.569 25.1596 123.837 25.9965C123.157 26.781 122.111 27.2518 120.699 27.4087L118.973 27.5656C115.782 27.8794 113.376 28.8731 111.755 30.5468C110.134 32.1682 109.323 34.4696 109.323 37.4508V53.6909C109.323 55.3123 108.904 56.5676 108.068 57.4567C107.231 58.2936 106.002 58.712 104.38 58.712Z" fill="black"/>
<path d="M134.946 58.6335C133.377 58.6335 132.174 58.1628 131.337 57.2213C130.5 56.2799 130.082 54.9723 130.082 53.2986V24.5059C130.082 22.7799 130.5 21.4723 131.337 20.5831C132.174 19.6417 133.377 19.171 134.946 19.171C136.515 19.171 137.718 19.6417 138.555 20.5831C139.444 21.4723 139.889 22.7799 139.889 24.5059V53.2986C139.889 54.9723 139.47 56.2799 138.634 57.2213C137.797 58.1628 136.568 58.6335 134.946 58.6335ZM134.946 11.8747C133.116 11.8747 131.677 11.4301 130.631 10.541C129.637 9.59952 129.141 8.3181 129.141 6.6967C129.141 5.02301 129.637 3.74159 130.631 2.85244C131.677 1.96329 133.116 1.51871 134.946 1.51871C136.829 1.51871 138.267 1.96329 139.261 2.85244C140.255 3.74159 140.752 5.02301 140.752 6.6967C140.752 8.3181 140.255 9.59952 139.261 10.541C138.267 11.4301 136.829 11.8747 134.946 11.8747Z" fill="black"/>
<path d="M162.71 58.8689C159.938 58.8689 157.453 58.3459 155.257 57.2998C153.112 56.2014 151.412 54.737 150.157 52.9063C148.954 51.0757 148.353 49.0098 148.353 46.7085C148.353 43.8841 149.085 41.6612 150.549 40.0398C152.014 38.3661 154.394 37.1632 157.689 36.4309C160.984 35.6987 165.403 35.3326 170.948 35.3326H174.87V40.9813H171.026C167.783 40.9813 165.194 41.1382 163.259 41.452C161.324 41.7658 159.938 42.315 159.101 43.0995C158.316 43.8318 157.924 44.8778 157.924 46.2377C157.924 47.9637 158.526 49.3759 159.729 50.4743C160.932 51.5726 162.605 52.1218 164.75 52.1218C166.476 52.1218 167.992 51.7295 169.3 50.945C170.66 50.1081 171.732 48.9836 172.517 47.5714C173.301 46.1593 173.693 44.5379 173.693 42.7073V33.685C173.693 31.0699 173.118 29.187 171.967 28.0363C170.817 26.8856 168.882 26.3103 166.162 26.3103C164.645 26.3103 162.998 26.4934 161.219 26.8595C159.493 27.2256 157.663 27.8532 155.727 28.7424C154.734 29.2131 153.845 29.3439 153.06 29.1347C152.328 28.9255 151.752 28.507 151.334 27.8794C150.916 27.1995 150.706 26.4672 150.706 25.6827C150.706 24.8981 150.916 24.1397 151.334 23.4075C151.752 22.6229 152.458 22.0476 153.452 21.6815C155.858 20.6877 158.159 19.9817 160.356 19.5632C162.605 19.1448 164.645 18.9356 166.476 18.9356C170.241 18.9356 173.327 19.5109 175.733 20.6616C178.192 21.8123 180.022 23.5644 181.225 25.918C182.428 28.2194 183.03 31.2006 183.03 34.8618V53.6909C183.03 55.3123 182.637 56.5676 181.853 57.4567C181.068 58.2936 179.944 58.712 178.479 58.712C177.015 58.712 175.864 58.2936 175.027 57.4567C174.243 56.5676 173.85 55.3123 173.85 53.6909V49.9251H174.478C174.112 51.7557 173.38 53.3509 172.281 54.7108C171.235 56.0184 169.902 57.0383 168.28 57.7705C166.659 58.5028 164.802 58.8689 162.71 58.8689Z" fill="black"/>
</g>
</g>
<defs>
<filter id="filter0_d_52_14" x="-1.64459" y="-1.64458" width="189.674" height="65.5135" filterUnits="userSpaceOnUse" color-interpolation-filters="sRGB">
<feFlood flood-opacity="0" result="BackgroundImageFix"/>
<feColorMatrix in="SourceAlpha" type="matrix" values="0 0 0 0 0 0 0 0 0 0 0 0 0 0 0 0 0 0 127 0" result="hardAlpha"/>
<feOffset dx="2" dy="2"/>
<feGaussianBlur stdDeviation="1.5"/>
<feComposite in2="hardAlpha" operator="out"/>
<feColorMatrix type="matrix" values="0 0 0 0 0 0 0 0 0 0 0 0 0 0 0 0 0 0 0.2 0"/>
<feBlend mode="normal" in2="BackgroundImageFix" result="effect1_dropShadow_52_14"/>
<feBlend mode="normal" in="SourceGraphic" in2="effect1_dropShadow_52_14" result="shape"/>
</filter>
<clipPath id="clip0_52_14">
<rect width="183" height="59" fill="white"/>
</clipPath>
</defs>
</svg>
