<svg width="191" height="66" viewBox="0 0 191 66" fill="none" xmlns="http://www.w3.org/2000/svg">
<g filter="url(#filter0_d_18_29)">
<path d="M2.5 16L10 20.5H39.5L44.5 24L46 29L44.5 34L39.5 37.5H10L2.5 43V16Z" fill="#F4ECF5"/>
<path d="M49.5032 1.91566L10.9871 1.97201C7.13548 1.91566 2 3.8494 2 10.9961C2 18.2154 7.13548 20.0202 10.9871 20.0202H36.6645L40.5161 19.9639H49.5032C53.3548 19.9639 58.4903 18.1428 58.4903 10.9961C58.4903 3.8494 53.3548 1.91566 49.5032 1.91566Z" fill="black"/>
<path d="M19.9742 49.6145V38.0121H10.9871C7.13548 38.0121 2 40.8482 2 49.6145C2 56.7048 3.92581 59.9277 10.9871 59.9277C18.0484 59.9277 19.9742 56.7048 19.9742 49.6145Z" fill="black"/>
<path d="M36.6645 20.0202C39.6602 20.0202 45.6516 21.7687 45.6516 28.988C45.6516 36.2072 39.6602 38.0121 36.6645 38.0121H19.9742M36.6645 20.0202H10.9871C7.13548 20.0202 2 18.2154 2 10.9961M36.6645 20.0202L40.5161 19.9639H49.5032C53.3548 19.9639 58.4903 18.1428 58.4903 10.9961C58.4903 3.8494 53.3548 1.91566 49.5032 1.91566L10.9871 1.97201C7.13548 1.91566 2 3.8494 2 10.9961M19.9742 38.0121V49.6145C19.9742 56.7048 18.0484 59.9277 10.9871 59.9277C3.92581 59.9277 2 56.7048 2 49.6145M19.9742 38.0121H10.9871C7.13548 38.0121 2 40.8482 2 49.6145M19.9742 38.0121V47.0361M19.9742 38.0121L28.9613 38.012M2 49.6145V10.9961" stroke="black" stroke-width="1.28916"/>
<path d="M71.0855 60.7845C68.3135 60.7845 65.8291 60.2615 63.6324 59.2155C61.488 58.1171 59.7881 56.6526 58.5328 54.822C57.3299 52.9914 56.7284 50.9254 56.7284 48.6241C56.7284 45.7998 57.4606 43.5769 58.9251 41.9555C60.3896 40.2818 62.7694 39.0788 66.0645 38.3466C69.3596 37.6143 73.7792 37.2482 79.3233 37.2482H83.246V42.8969H79.4017C76.1589 42.8969 73.5699 43.0539 71.6347 43.3677C69.6995 43.6815 68.3135 44.2307 67.4766 45.0152C66.6921 45.7475 66.2998 46.7935 66.2998 48.1534C66.2998 49.8794 66.9013 51.2916 68.1043 52.3899C69.3072 53.4883 70.9809 54.0375 73.1254 54.0375C74.8514 54.0375 76.3681 53.6452 77.6757 52.8607C79.0356 52.0238 80.1078 50.8993 80.8923 49.4871C81.6769 48.0749 82.0692 46.4535 82.0692 44.6229V35.6007C82.0692 32.9855 81.4938 31.1026 80.3432 29.952C79.1925 28.8013 77.2573 28.226 74.5375 28.226C73.0208 28.226 71.3732 28.409 69.5949 28.7751C67.8689 29.1413 66.0383 29.7689 64.1031 30.6581C63.1094 31.1288 62.2202 31.2595 61.4357 31.0503C60.7034 30.8411 60.1281 30.4227 59.7097 29.7951C59.2912 29.1151 59.082 28.3829 59.082 27.5983C59.082 26.8138 59.2912 26.0554 59.7097 25.3232C60.1281 24.5386 60.8342 23.9633 61.8279 23.5972C64.2339 22.6034 66.5352 21.8973 68.7319 21.4789C70.9809 21.0605 73.0208 20.8513 74.8514 20.8513C78.6172 20.8513 81.703 21.4266 84.109 22.5773C86.5672 23.7279 88.3978 25.4801 89.6008 27.8337C90.8038 30.135 91.4052 33.1163 91.4052 36.7775V55.6066C91.4052 57.2279 91.013 58.4832 90.2284 59.3724C89.4439 60.2092 88.3194 60.6276 86.8549 60.6276C85.3904 60.6276 84.2397 60.2092 83.4029 59.3724C82.6183 58.4832 82.2261 57.2279 82.2261 55.6066V51.8407H82.8537C82.4876 53.6713 81.7553 55.2666 80.657 56.6265C79.6109 57.934 78.2772 58.9539 76.6558 59.6862C75.0344 60.4184 73.1777 60.7845 71.0855 60.7845Z" fill="black"/>
<path d="M106.38 60.6276C104.759 60.6276 103.504 60.2092 102.614 59.3724C101.778 58.4832 101.359 57.2279 101.359 55.6066V25.9508C101.359 24.3294 101.778 23.1003 102.614 22.2634C103.451 21.4266 104.628 21.0082 106.145 21.0082C107.662 21.0082 108.838 21.4266 109.675 22.2634C110.512 23.1003 110.931 24.3294 110.931 25.9508V30.8934H110.146C110.878 27.7552 112.317 25.3755 114.461 23.7541C116.605 22.1327 119.456 21.1651 123.013 20.8513C124.111 20.7466 124.974 21.0343 125.602 21.7143C126.281 22.3419 126.674 23.3356 126.778 24.6955C126.883 26.0031 126.569 27.0753 125.837 27.9122C125.157 28.6967 124.111 29.1674 122.699 29.3243L120.973 29.4812C117.782 29.7951 115.376 30.7888 113.755 32.4625C112.134 34.0839 111.323 36.3852 111.323 39.3665V55.6066C111.323 57.2279 110.904 58.4832 110.068 59.3724C109.231 60.2092 108.002 60.6276 106.38 60.6276Z" fill="black"/>
<path d="M136.946 60.5492C135.377 60.5492 134.174 60.0785 133.337 59.137C132.5 58.1956 132.082 56.888 132.082 55.2143V26.4215C132.082 24.6955 132.5 23.3879 133.337 22.4988C134.174 21.5573 135.377 21.0866 136.946 21.0866C138.515 21.0866 139.718 21.5573 140.555 22.4988C141.444 23.3879 141.889 24.6955 141.889 26.4215V55.2143C141.889 56.888 141.47 58.1956 140.634 59.137C139.797 60.0785 138.568 60.5492 136.946 60.5492ZM136.946 13.7904C135.116 13.7904 133.677 13.3458 132.631 12.4566C131.637 11.5152 131.141 10.2338 131.141 8.61237C131.141 6.93867 131.637 5.65725 132.631 4.7681C133.677 3.87895 135.116 3.43438 136.946 3.43438C138.829 3.43438 140.267 3.87895 141.261 4.7681C142.255 5.65725 142.752 6.93867 142.752 8.61237C142.752 10.2338 142.255 11.5152 141.261 12.4566C140.267 13.3458 138.829 13.7904 136.946 13.7904Z" fill="black"/>
<path d="M164.71 60.7845C161.938 60.7845 159.453 60.2615 157.257 59.2155C155.112 58.1171 153.412 56.6526 152.157 54.822C150.954 52.9914 150.353 50.9254 150.353 48.6241C150.353 45.7998 151.085 43.5769 152.549 41.9555C154.014 40.2818 156.394 39.0788 159.689 38.3466C162.984 37.6143 167.403 37.2482 172.948 37.2482H176.87V42.8969H173.026C169.783 42.8969 167.194 43.0539 165.259 43.3677C163.324 43.6815 161.938 44.2307 161.101 45.0152C160.316 45.7475 159.924 46.7935 159.924 48.1534C159.924 49.8794 160.526 51.2916 161.729 52.3899C162.932 53.4883 164.605 54.0375 166.75 54.0375C168.476 54.0375 169.992 53.6452 171.3 52.8607C172.66 52.0238 173.732 50.8993 174.517 49.4871C175.301 48.0749 175.693 46.4535 175.693 44.6229V35.6007C175.693 32.9855 175.118 31.1026 173.967 29.952C172.817 28.8013 170.882 28.226 168.162 28.226C166.645 28.226 164.998 28.409 163.219 28.7751C161.493 29.1413 159.663 29.7689 157.727 30.6581C156.734 31.1288 155.845 31.2595 155.06 31.0503C154.328 30.8411 153.752 30.4227 153.334 29.7951C152.916 29.1151 152.706 28.3829 152.706 27.5983C152.706 26.8138 152.916 26.0554 153.334 25.3232C153.752 24.5386 154.458 23.9633 155.452 23.5972C157.858 22.6034 160.159 21.8973 162.356 21.4789C164.605 21.0605 166.645 20.8513 168.476 20.8513C172.241 20.8513 175.327 21.4266 177.733 22.5773C180.192 23.7279 182.022 25.4801 183.225 27.8337C184.428 30.135 185.03 33.1163 185.03 36.7775V55.6066C185.03 57.2279 184.637 58.4832 183.853 59.3724C183.068 60.2092 181.944 60.6276 180.479 60.6276C179.015 60.6276 177.864 60.2092 177.027 59.3724C176.243 58.4832 175.85 57.2279 175.85 55.6066V51.8407H176.478C176.112 53.6713 175.38 55.2666 174.281 56.6265C173.235 57.934 171.902 58.9539 170.28 59.6862C168.659 60.4184 166.802 60.7845 164.71 60.7845Z" fill="black"/>
</g>
<defs>
<filter id="filter0_d_18_29" x="0.355421" y="0.271088" width="189.674" height="65.5135" filterUnits="userSpaceOnUse" color-interpolation-filters="sRGB">
<feFlood flood-opacity="0" result="BackgroundImageFix"/>
<feColorMatrix in="SourceAlpha" type="matrix" values="0 0 0 0 0 0 0 0 0 0 0 0 0 0 0 0 0 0 127 0" result="hardAlpha"/>
<feOffset dx="2" dy="2"/>
<feGaussianBlur stdDeviation="1.5"/>
<feComposite in2="hardAlpha" operator="out"/>
<feColorMatrix type="matrix" values="0 0 0 0 0 0 0 0 0 0 0 0 0 0 0 0 0 0 0.2 0"/>
<feBlend mode="normal" in2="BackgroundImageFix" result="effect1_dropShadow_18_29"/>
<feBlend mode="normal" in="SourceGraphic" in2="effect1_dropShadow_18_29" result="shape"/>
</filter>
</defs>
</svg>
