<svg xmlns="http://www.w3.org/2000/svg" width="12" height="16" fill="none"><path fill="url(#a)" d="M6.416.223a.5.5 0 0 0-.832 0l-3 4.5A.5.5 0 0 0 3 5.5h.098L1.076 8.735A.5.5 0 0 0 1.5 9.5h.191L.053 12.776A.5.5 0 0 0 .5 13.5H5V16h2v-2.5h4.5a.5.5 0 0 0 .447-.724L10.31 9.5h.191a.5.5 0 0 0 .424-.765L8.902 5.5H9a.5.5 0 0 0 .416-.777l-3-4.5ZM4.437 4.758A.5.5 0 0 0 4 4.5h-.066L6 1.4l2.066 3.1H8a.5.5 0 0 0-.424.765L9.598 8.5H9.5a.5.5 0 0 0-.447.724L10.69 12.5H1.309l1.638-3.276A.5.5 0 0 0 2.5 8.5h-.098l2.022-3.235a.5.5 0 0 0 .013-.507Z"/><defs><linearGradient id="a" x1="6" x2="6" y1="0" y2="16" gradientUnits="userSpaceOnUse"><stop stop-color="#FFBF00"/><stop offset="1" stop-color="#F2A60C"/></linearGradient></defs></svg>