<svg xmlns="http://www.w3.org/2000/svg" width="28" height="28" fill="none"><path stroke="url(#a)" stroke-linecap="round" stroke-linejoin="round" stroke-width="3" d="m12.057 18.474-1.708 6.833a.924.924 0 0 1-.184.356.98.98 0 0 1-.32.253 1.094 1.094 0 0 1-.835 0l-6.443-2.678a.984.984 0 0 1-.348-.26.898.898 0 0 1-.002-1.18l4.988-5.947"/><path stroke="url(#b)" stroke-linecap="round" stroke-linejoin="round" stroke-width="3" d="m15.938 18.381 1.746 6.926a.91.91 0 0 0 .19.36.964.964 0 0 0 .742.333c.14 0 .28-.028.407-.083l6.405-2.678a.966.966 0 0 0 .352-.262.905.905 0 0 0 .191-.385.844.844 0 0 0 .005-.42.871.871 0 0 0-.2-.374l-5.2-6.297"/><path stroke="url(#c)" stroke-linecap="round" stroke-linejoin="round" stroke-width="3" d="M13.745 18.622c4.823 0 8.733-3.721 8.733-8.311S18.568 2 13.745 2s-8.733 3.72-8.733 8.31 3.91 8.312 8.733 8.312Z"/><path stroke="url(#d)" stroke-linecap="round" stroke-linejoin="round" stroke-width="3" d="M13.745 14.004c2.144 0 3.881-1.654 3.881-3.694s-1.737-3.693-3.881-3.693c-2.144 0-3.881 1.653-3.881 3.693s1.737 3.694 3.881 3.694Z"/><defs><linearGradient id="a" x1="7.028" x2="7.028" y1="15.851" y2="25.999" gradientUnits="userSpaceOnUse"><stop stop-color="#FFBF00"/><stop offset="1" stop-color="#F2A60C"/></linearGradient><linearGradient id="b" x1="20.969" x2="20.969" y1="15.501" y2="26" gradientUnits="userSpaceOnUse"><stop stop-color="#FFBF00"/><stop offset="1" stop-color="#F2A60C"/></linearGradient><linearGradient id="c" x1="13.745" x2="13.745" y1="2" y2="18.622" gradientUnits="userSpaceOnUse"><stop stop-color="#FFBF00"/><stop offset="1" stop-color="#F2A60C"/></linearGradient><linearGradient id="d" x1="13.745" x2="13.745" y1="6.617" y2="14.004" gradientUnits="userSpaceOnUse"><stop stop-color="#FFBF00"/><stop offset="1" stop-color="#F2A60C"/></linearGradient></defs></svg>