<svg xmlns="http://www.w3.org/2000/svg" width="40" height="41" fill="none"><path fill="#CCC" d="M0 2.917A2.927 2.927 0 0 1 2.938 0h34.124A2.927 2.927 0 0 1 40 2.917v34.89a2.927 2.927 0 0 1-2.938 2.917H2.938A2.927 2.927 0 0 1 0 37.807V2.917ZM12.357 34.09V15.7H6.356v18.39h6.002Zm-3-20.902c2.093 0 3.396-1.41 3.396-3.176-.038-1.805-1.3-3.176-3.355-3.176C7.343 6.837 6 8.21 6 10.013c0 1.766 1.303 3.176 3.318 3.176h.04Zm12.27 20.902V23.82c0-.55.04-1.1.2-1.492.433-1.097 1.42-2.234 3.08-2.234 2.173 0 3.04 1.685 3.04 4.159v9.837h6.003V23.544c0-5.651-2.96-8.278-6.91-8.278-3.185 0-4.613 1.782-5.412 3.037v.063h-.04l.04-.063v-2.601h-6c.075 1.725 0 18.389 0 18.389h6Z"/></svg>