<svg xmlns="http://www.w3.org/2000/svg" width="12" height="14" fill="none"><path fill="url(#a)" d="M5.733 0C2.723 0 0 2.29 0 5.834c0 2.263 1.756 4.924 5.26 7.99a.732.732 0 0 0 .952 0c3.497-3.066 5.253-5.727 5.253-7.99C11.465 2.291 8.742 0 5.733 0Zm0 7.115c-.789 0-1.434-.64-1.434-1.423s.645-1.424 1.434-1.424c.788 0 1.433.64 1.433 1.424 0 .782-.645 1.423-1.433 1.423Z"/><defs><linearGradient id="a" x1="5.733" x2="5.733" y1="0" y2="14" gradientUnits="userSpaceOnUse"><stop stop-color="#FFBF00"/><stop offset="1" stop-color="#F2A60C"/></linearGradient></defs></svg>