<svg xmlns="http://www.w3.org/2000/svg" width="12" height="16" fill="none"><path fill="url(#a)" d="M12 1.914c0-.291-.07-.578-.203-.84a1.932 1.932 0 0 0-.567-.669 2.041 2.041 0 0 0-.816-.364 2.088 2.088 0 0 0-.9.016l-2 .479a2.01 2.01 0 0 0-1.09.679C6.148 1.55 6 1.965 6 2.392v8.241a5.344 5.344 0 0 0-2-.375c-1 0-1.948.257-2.676.722C.604 11.44 0 12.182 0 13.13c0 .946.602 1.69 1.324 2.148C2.052 15.743 3.002 16 4 16c1 0 1.948-.257 2.676-.722C7.396 14.82 8 14.076 8 13.13V6.22l4-.957v-3.35Z"/><defs><linearGradient id="a" x1="6" x2="6" y1="0" y2="16" gradientUnits="userSpaceOnUse"><stop stop-color="#FFBF00"/><stop offset="1" stop-color="#F2A60C"/></linearGradient></defs></svg>